# 3ds Max Wavefront OBJ Exporter v0.97b - (c)2007 guruware
# File Created: 26.05.2016 04:51:54

mtllib wheel.mtl

#
# object Sphere001
#

v  0.0000 1.2722 -0.0000
v  -0.0000 1.2286 -0.2331
v  -0.0842 1.2286 -0.2174
v  -0.1571 1.2286 -0.1723
v  -0.2087 1.2286 -0.1039
v  -0.2321 1.2286 -0.0215
v  -0.2242 1.2286 0.0638
v  -0.1860 1.2286 0.1405
v  -0.1227 1.2286 0.1982
v  -0.0428 1.2286 0.2292
v  0.0428 1.2286 0.2292
v  0.1227 1.2286 0.1982
v  0.1860 1.2286 0.1405
v  0.2242 1.2286 0.0638
v  0.2321 1.2286 -0.0215
v  0.2087 1.2286 -0.1039
v  0.1571 1.2286 -0.1723
v  0.0842 1.2286 -0.2174
v  -0.1571 1.1037 -0.4054
v  -0.0000 1.1037 -0.4348
v  -0.2929 1.1037 -0.3213
v  -0.3892 1.1037 -0.1938
v  -0.4329 1.1037 -0.0401
v  -0.4182 1.1037 0.1190
v  -0.3470 1.1037 0.2620
v  -0.2289 1.1037 0.3697
v  -0.0799 1.1037 0.4274
v  0.0799 1.1037 0.4274
v  0.2289 1.1037 0.3697
v  0.3470 1.1037 0.2620
v  0.4182 1.1037 0.1190
v  0.4329 1.1037 -0.0401
v  0.3892 1.1037 -0.1938
v  0.2929 1.1037 -0.3213
v  0.1571 1.1037 -0.4054
v  -0.2087 0.9145 -0.5387
v  -0.0000 0.9145 -0.5777
v  -0.3892 0.9145 -0.4269
v  -0.5171 0.9145 -0.2575
v  -0.5753 0.9145 -0.0533
v  -0.5557 0.9145 0.1581
v  -0.4610 0.9145 0.3482
v  -0.3041 0.9145 0.4912
v  -0.1062 0.9145 0.5679
v  0.1062 0.9145 0.5679
v  0.3041 0.9145 0.4912
v  0.4610 0.9145 0.3482
v  0.5557 0.9145 0.1581
v  0.5752 0.9145 -0.0533
v  0.5171 0.9145 -0.2575
v  0.3892 0.9145 -0.4269
v  0.2087 0.9145 -0.5387
v  -0.2321 0.6864 -0.5992
v  -0.0000 0.6864 -0.6426
v  -0.4329 0.6864 -0.4749
v  -0.5752 0.6864 -0.2864
v  -0.6399 0.6864 -0.0593
v  -0.6181 0.6864 0.1759
v  -0.5128 0.6864 0.3873
v  -0.3383 0.6864 0.5464
v  -0.1181 0.6864 0.6317
v  0.1181 0.6864 0.6317
v  0.3383 0.6864 0.5464
v  0.5128 0.6864 0.3873
v  0.6181 0.6864 0.1759
v  0.6399 0.6864 -0.0593
v  0.5752 0.6864 -0.2864
v  0.4329 0.6864 -0.4749
v  0.2321 0.6864 -0.5992
v  -0.2242 0.4502 -0.5788
v  -0.0000 0.4502 -0.6207
v  -0.4182 0.4502 -0.4587
v  -0.5557 0.4502 -0.2767
v  -0.6181 0.4502 -0.0573
v  -0.5970 0.4502 0.1699
v  -0.4954 0.4502 0.3741
v  -0.3268 0.4502 0.5278
v  -0.1141 0.4502 0.6102
v  0.1141 0.4502 0.6102
v  0.3268 0.4502 0.5278
v  0.4954 0.4502 0.3741
v  0.5970 0.4502 0.1699
v  0.6181 0.4502 -0.0573
v  0.5557 0.4502 -0.2767
v  0.4182 0.4502 -0.4587
v  0.2242 0.4502 -0.5788
v  -0.1860 0.2379 -0.4802
v  -0.0000 0.2379 -0.5150
v  -0.3470 0.2379 -0.3806
v  -0.4610 0.2379 -0.2296
v  -0.5128 0.2379 -0.0475
v  -0.4954 0.2379 0.1409
v  -0.4110 0.2379 0.3104
v  -0.2711 0.2379 0.4379
v  -0.0946 0.2379 0.5062
v  0.0946 0.2379 0.5062
v  0.2711 0.2379 0.4379
v  0.4110 0.2379 0.3104
v  0.4954 0.2379 0.1409
v  0.5128 0.2379 -0.0475
v  0.4610 0.2379 -0.2296
v  0.3470 0.2379 -0.3806
v  0.1860 0.2379 -0.4802
v  -0.1227 0.0781 -0.3168
v  -0.0000 0.0781 -0.3397
v  -0.2289 0.0781 -0.2511
v  -0.3041 0.0781 -0.1514
v  -0.3383 0.0781 -0.0313
v  -0.3268 0.0781 0.0930
v  -0.2711 0.0781 0.2047
v  -0.1789 0.0781 0.2889
v  -0.0624 0.0781 0.3340
v  0.0624 0.0781 0.3340
v  0.1789 0.0781 0.2889
v  0.2711 0.0781 0.2047
v  0.3268 0.0781 0.0930
v  0.3383 0.0781 -0.0313
v  0.3041 0.0781 -0.1514
v  0.2289 0.0781 -0.2511
v  0.1227 0.0781 -0.3168
v  0.0000 -0.0186 -0.0000
# 121 vertices

vn 0.0000 1.0000 -0.0000
vn -0.0000 0.9251 -0.3797
vn -0.1372 0.9251 -0.3541
vn -0.2558 0.9251 -0.2806
vn -0.3399 0.9251 -0.1693
vn -0.3781 0.9251 -0.0350
vn -0.3652 0.9251 0.1039
vn -0.3030 0.9251 0.2288
vn -0.1999 0.9251 0.3229
vn -0.0698 0.9251 0.3733
vn 0.0698 0.9251 0.3733
vn 0.1999 0.9251 0.3229
vn 0.3030 0.9251 0.2288
vn 0.3652 0.9251 0.1039
vn 0.3781 0.9251 -0.0350
vn 0.3399 0.9251 -0.1693
vn 0.2558 0.9251 -0.2806
vn 0.1372 0.9251 -0.3541
vn -0.2475 0.7284 -0.6389
vn -0.0000 0.7284 -0.6851
vn -0.4616 0.7284 -0.5063
vn -0.6133 0.7284 -0.3054
vn -0.6822 0.7284 -0.0632
vn -0.6590 0.7284 0.1875
vn -0.5468 0.7284 0.4129
vn -0.3607 0.7284 0.5825
vn -0.1259 0.7284 0.6735
vn 0.1259 0.7284 0.6735
vn 0.3607 0.7284 0.5825
vn 0.5468 0.7284 0.4129
vn 0.6590 0.7284 0.1875
vn 0.6822 0.7284 -0.0632
vn 0.6133 0.7284 -0.3054
vn 0.4616 0.7284 -0.5063
vn 0.2475 0.7284 -0.6389
vn -0.3249 0.4374 -0.8386
vn -0.0000 0.4374 -0.8993
vn -0.6058 0.4374 -0.6646
vn -0.8050 0.4374 -0.4008
vn -0.8954 0.4374 -0.0830
vn -0.8650 0.4374 0.2461
vn -0.7176 0.4374 0.5419
vn -0.4734 0.4374 0.7646
vn -0.1652 0.4374 0.8840
vn 0.1652 0.4374 0.8840
vn 0.4734 0.4374 0.7646
vn 0.7176 0.4374 0.5419
vn 0.8650 0.4374 0.2461
vn 0.8954 0.4374 -0.0830
vn 0.8050 0.4374 -0.4008
vn 0.6058 0.4374 -0.6646
vn 0.3249 0.4374 -0.8386
vn -0.3598 0.0904 -0.9287
vn -0.0000 0.0904 -0.9959
vn -0.6709 0.0904 -0.7360
vn -0.8915 0.0904 -0.4439
vn -0.9917 0.0904 -0.0919
vn -0.9579 0.0904 0.2725
vn -0.7948 0.0904 0.6002
vn -0.5243 0.0904 0.8467
vn -0.1830 0.0904 0.9790
vn 0.1830 0.0904 0.9790
vn 0.5243 0.0904 0.8467
vn 0.7948 0.0904 0.6002
vn 0.9579 0.0904 0.2725
vn 0.9917 0.0904 -0.0919
vn 0.8915 0.0904 -0.4439
vn 0.6709 0.0904 -0.7360
vn 0.3598 0.0904 -0.9287
vn -0.3480 -0.2682 -0.8983
vn -0.0000 -0.2682 -0.9634
vn -0.6490 -0.2682 -0.7119
vn -0.8624 -0.2682 -0.4294
vn -0.9593 -0.2682 -0.0889
vn -0.9266 -0.2682 0.2636
vn -0.7688 -0.2682 0.5806
vn -0.5072 -0.2682 0.8191
vn -0.1770 -0.2682 0.9470
vn 0.1770 -0.2682 0.9470
vn 0.5072 -0.2682 0.8191
vn 0.7688 -0.2682 0.5806
vn 0.9266 -0.2682 0.2636
vn 0.9593 -0.2682 -0.0889
vn 0.8624 -0.2682 -0.4294
vn 0.6490 -0.2682 -0.7119
vn 0.3480 -0.2682 -0.8983
vn -0.2910 -0.5925 -0.7512
vn -0.0000 -0.5925 -0.8056
vn -0.5427 -0.5925 -0.5953
vn -0.7211 -0.5925 -0.3591
vn -0.8021 -0.5925 -0.0743
vn -0.7748 -0.5925 0.2205
vn -0.6429 -0.5925 0.4855
vn -0.4241 -0.5925 0.6849
vn -0.1480 -0.5925 0.7919
vn 0.1480 -0.5925 0.7919
vn 0.4241 -0.5925 0.6849
vn 0.6429 -0.5925 0.4855
vn 0.7748 -0.5925 0.2205
vn 0.8021 -0.5925 -0.0743
vn 0.7211 -0.5925 -0.3591
vn 0.5427 -0.5925 -0.5953
vn 0.2910 -0.5925 -0.7512
vn -0.1830 -0.8622 -0.4724
vn -0.0000 -0.8622 -0.5066
vn -0.3413 -0.8622 -0.3744
vn -0.4535 -0.8622 -0.2258
vn -0.5044 -0.8622 -0.0467
vn -0.4873 -0.8622 0.1386
vn -0.4043 -0.8622 0.3053
vn -0.2667 -0.8622 0.4307
vn -0.0931 -0.8622 0.4980
vn 0.0931 -0.8622 0.4980
vn 0.2667 -0.8622 0.4307
vn 0.4043 -0.8622 0.3053
vn 0.4873 -0.8622 0.1386
vn 0.5044 -0.8622 -0.0467
vn 0.4535 -0.8622 -0.2258
vn 0.3413 -0.8622 -0.3744
vn 0.1830 -0.8622 -0.4724
vn 0.0000 -1.0000 -0.0000
# 121 vertex normals

vt 0.0000 1.0000 0.0000
vt 0.0000 0.8824 0.0000
vt 0.0588 0.8824 0.0000
vt 0.0588 1.0000 0.0000
vt 0.1176 0.8824 0.0000
vt 0.1176 1.0000 0.0000
vt 0.1765 0.8824 0.0000
vt 0.1765 1.0000 0.0000
vt 0.2353 0.8824 0.0000
vt 0.2353 1.0000 0.0000
vt 0.2941 0.8824 0.0000
vt 0.2941 1.0000 0.0000
vt 0.3529 0.8824 0.0000
vt 0.3529 1.0000 0.0000
vt 0.4118 0.8824 0.0000
vt 0.4118 1.0000 0.0000
vt 0.4706 0.8824 0.0000
vt 0.4706 1.0000 0.0000
vt 0.5294 0.8824 0.0000
vt 0.5294 1.0000 0.0000
vt 0.5882 0.8824 0.0000
vt 0.5882 1.0000 0.0000
vt 0.6471 0.8824 0.0000
vt 0.6471 1.0000 0.0000
vt 0.7059 0.8824 0.0000
vt 0.7059 1.0000 0.0000
vt 0.7647 0.8824 0.0000
vt 0.7647 1.0000 0.0000
vt 0.8235 0.8824 0.0000
vt 0.8235 1.0000 0.0000
vt 0.8824 0.8824 0.0000
vt 0.8824 1.0000 0.0000
vt 0.9412 0.8824 0.0000
vt 0.9412 1.0000 0.0000
vt 1.0000 0.8824 0.0000
vt 0.0588 0.7647 0.0000
vt 0.0000 0.7647 0.0000
vt 0.1176 0.7647 0.0000
vt 0.1765 0.7647 0.0000
vt 0.2353 0.7647 0.0000
vt 0.2941 0.7647 0.0000
vt 0.3529 0.7647 0.0000
vt 0.4118 0.7647 0.0000
vt 0.4706 0.7647 0.0000
vt 0.5294 0.7647 0.0000
vt 0.5882 0.7647 0.0000
vt 0.6471 0.7647 0.0000
vt 0.7059 0.7647 0.0000
vt 0.7647 0.7647 0.0000
vt 0.8235 0.7647 0.0000
vt 0.8824 0.7647 0.0000
vt 0.9412 0.7647 0.0000
vt 1.0000 0.7647 0.0000
vt 0.0588 0.6471 0.0000
vt 0.0000 0.6471 0.0000
vt 0.1176 0.6471 0.0000
vt 0.1765 0.6471 0.0000
vt 0.2353 0.6471 0.0000
vt 0.2941 0.6471 0.0000
vt 0.3529 0.6471 0.0000
vt 0.4118 0.6471 0.0000
vt 0.4706 0.6471 0.0000
vt 0.5294 0.6471 0.0000
vt 0.5882 0.6471 0.0000
vt 0.6471 0.6471 0.0000
vt 0.7059 0.6471 0.0000
vt 0.7647 0.6471 0.0000
vt 0.8235 0.6471 0.0000
vt 0.8824 0.6471 0.0000
vt 0.9412 0.6471 0.0000
vt 1.0000 0.6471 0.0000
vt 0.0588 0.5294 0.0000
vt 0.0000 0.5294 0.0000
vt 0.1176 0.5294 0.0000
vt 0.1765 0.5294 0.0000
vt 0.2353 0.5294 0.0000
vt 0.2941 0.5294 0.0000
vt 0.3529 0.5294 0.0000
vt 0.4118 0.5294 0.0000
vt 0.4706 0.5294 0.0000
vt 0.5294 0.5294 0.0000
vt 0.5882 0.5294 0.0000
vt 0.6471 0.5294 0.0000
vt 0.7059 0.5294 0.0000
vt 0.7647 0.5294 0.0000
vt 0.8235 0.5294 0.0000
vt 0.8824 0.5294 0.0000
vt 0.9412 0.5294 0.0000
vt 1.0000 0.5294 0.0000
vt 0.0588 0.4118 0.0000
vt 0.0000 0.4118 0.0000
vt 0.1176 0.4118 0.0000
vt 0.1765 0.4118 0.0000
vt 0.2353 0.4118 0.0000
vt 0.2941 0.4118 0.0000
vt 0.3529 0.4118 0.0000
vt 0.4118 0.4118 0.0000
vt 0.4706 0.4118 0.0000
vt 0.5294 0.4118 0.0000
vt 0.5882 0.4118 0.0000
vt 0.6471 0.4118 0.0000
vt 0.7059 0.4118 0.0000
vt 0.7647 0.4118 0.0000
vt 0.8235 0.4118 0.0000
vt 0.8824 0.4118 0.0000
vt 0.9412 0.4118 0.0000
vt 1.0000 0.4118 0.0000
vt 0.0588 0.2941 0.0000
vt 0.0000 0.2941 0.0000
vt 0.1176 0.2941 0.0000
vt 0.1765 0.2941 0.0000
vt 0.2353 0.2941 0.0000
vt 0.2941 0.2941 0.0000
vt 0.3529 0.2941 0.0000
vt 0.4118 0.2941 0.0000
vt 0.4706 0.2941 0.0000
vt 0.5294 0.2941 0.0000
vt 0.5882 0.2941 0.0000
vt 0.6471 0.2941 0.0000
vt 0.7059 0.2941 0.0000
vt 0.7647 0.2941 0.0000
vt 0.8235 0.2941 0.0000
vt 0.8824 0.2941 0.0000
vt 0.9412 0.2941 0.0000
vt 1.0000 0.2941 0.0000
vt 0.0588 0.1765 0.0000
vt 0.0000 0.1765 0.0000
vt 0.1176 0.1765 0.0000
vt 0.1765 0.1765 0.0000
vt 0.2353 0.1765 0.0000
vt 0.2941 0.1765 0.0000
vt 0.3529 0.1765 0.0000
vt 0.4118 0.1765 0.0000
vt 0.4706 0.1765 0.0000
vt 0.5294 0.1765 0.0000
vt 0.5882 0.1765 0.0000
vt 0.6471 0.1765 0.0000
vt 0.7059 0.1765 0.0000
vt 0.7647 0.1765 0.0000
vt 0.8235 0.1765 0.0000
vt 0.8824 0.1765 0.0000
vt 0.9412 0.1765 0.0000
vt 1.0000 0.1765 0.0000
vt 0.0000 0.0588 0.0000
vt 0.0588 0.0588 0.0000
vt 0.1176 0.0588 0.0000
vt 0.1765 0.0588 0.0000
vt 0.2353 0.0588 0.0000
vt 0.2941 0.0588 0.0000
vt 0.3529 0.0588 0.0000
vt 0.4118 0.0588 0.0000
vt 0.4706 0.0588 0.0000
vt 0.5294 0.0588 0.0000
vt 0.5882 0.0588 0.0000
vt 0.6471 0.0588 0.0000
vt 0.7059 0.0588 0.0000
vt 0.7647 0.0588 0.0000
vt 0.8235 0.0588 0.0000
vt 0.8824 0.0588 0.0000
vt 0.9412 0.0588 0.0000
# 160 texture coords

g Sphere001
usemtl wire_176026026
s 1
f 1/1/1 2/2/2 3/3/3 
f 1/4/1 3/3/3 4/5/4 
f 1/6/1 4/5/4 5/7/5 
f 1/8/1 5/7/5 6/9/6 
f 1/10/1 6/9/6 7/11/7 
f 1/12/1 7/11/7 8/13/8 
f 1/14/1 8/13/8 9/15/9 
f 1/16/1 9/15/9 10/17/10 
f 1/18/1 10/17/10 11/19/11 
f 1/20/1 11/19/11 12/21/12 
f 1/22/1 12/21/12 13/23/13 
f 1/24/1 13/23/13 14/25/14 
f 1/26/1 14/25/14 15/27/15 
f 1/28/1 15/27/15 16/29/16 
f 1/30/1 16/29/16 17/31/17 
f 1/32/1 17/31/17 18/33/18 
f 1/34/1 18/33/18 2/35/2 
f 19/36/19 3/3/3 2/2/2 
f 2/2/2 20/37/20 19/36/19 
f 21/38/21 4/5/4 3/3/3 
f 3/3/3 19/36/19 21/38/21 
f 22/39/22 5/7/5 4/5/4 
f 4/5/4 21/38/21 22/39/22 
f 23/40/23 6/9/6 5/7/5 
f 5/7/5 22/39/22 23/40/23 
f 24/41/24 7/11/7 6/9/6 
f 6/9/6 23/40/23 24/41/24 
f 25/42/25 8/13/8 7/11/7 
f 7/11/7 24/41/24 25/42/25 
f 26/43/26 9/15/9 8/13/8 
f 8/13/8 25/42/25 26/43/26 
f 27/44/27 10/17/10 9/15/9 
f 9/15/9 26/43/26 27/44/27 
f 28/45/28 11/19/11 10/17/10 
f 10/17/10 27/44/27 28/45/28 
f 29/46/29 12/21/12 11/19/11 
f 11/19/11 28/45/28 29/46/29 
f 30/47/30 13/23/13 12/21/12 
f 12/21/12 29/46/29 30/47/30 
f 31/48/31 14/25/14 13/23/13 
f 13/23/13 30/47/30 31/48/31 
f 32/49/32 15/27/15 14/25/14 
f 14/25/14 31/48/31 32/49/32 
f 33/50/33 16/29/16 15/27/15 
f 15/27/15 32/49/32 33/50/33 
f 34/51/34 17/31/17 16/29/16 
f 16/29/16 33/50/33 34/51/34 
f 35/52/35 18/33/18 17/31/17 
f 17/31/17 34/51/34 35/52/35 
f 20/53/20 2/35/2 18/33/18 
f 18/33/18 35/52/35 20/53/20 
f 36/54/36 19/36/19 20/37/20 
f 20/37/20 37/55/37 36/54/36 
f 38/56/38 21/38/21 19/36/19 
f 19/36/19 36/54/36 38/56/38 
f 39/57/39 22/39/22 21/38/21 
f 21/38/21 38/56/38 39/57/39 
f 40/58/40 23/40/23 22/39/22 
f 22/39/22 39/57/39 40/58/40 
f 41/59/41 24/41/24 23/40/23 
f 23/40/23 40/58/40 41/59/41 
f 42/60/42 25/42/25 24/41/24 
f 24/41/24 41/59/41 42/60/42 
f 43/61/43 26/43/26 25/42/25 
f 25/42/25 42/60/42 43/61/43 
f 44/62/44 27/44/27 26/43/26 
f 26/43/26 43/61/43 44/62/44 
f 45/63/45 28/45/28 27/44/27 
f 27/44/27 44/62/44 45/63/45 
f 46/64/46 29/46/29 28/45/28 
f 28/45/28 45/63/45 46/64/46 
f 47/65/47 30/47/30 29/46/29 
f 29/46/29 46/64/46 47/65/47 
f 48/66/48 31/48/31 30/47/30 
f 30/47/30 47/65/47 48/66/48 
f 49/67/49 32/49/32 31/48/31 
f 31/48/31 48/66/48 49/67/49 
f 50/68/50 33/50/33 32/49/32 
f 32/49/32 49/67/49 50/68/50 
f 51/69/51 34/51/34 33/50/33 
f 33/50/33 50/68/50 51/69/51 
f 52/70/52 35/52/35 34/51/34 
f 34/51/34 51/69/51 52/70/52 
f 37/71/37 20/53/20 35/52/35 
f 35/52/35 52/70/52 37/71/37 
f 53/72/53 36/54/36 37/55/37 
f 37/55/37 54/73/54 53/72/53 
f 55/74/55 38/56/38 36/54/36 
f 36/54/36 53/72/53 55/74/55 
f 56/75/56 39/57/39 38/56/38 
f 38/56/38 55/74/55 56/75/56 
f 57/76/57 40/58/40 39/57/39 
f 39/57/39 56/75/56 57/76/57 
f 58/77/58 41/59/41 40/58/40 
f 40/58/40 57/76/57 58/77/58 
f 59/78/59 42/60/42 41/59/41 
f 41/59/41 58/77/58 59/78/59 
f 60/79/60 43/61/43 42/60/42 
f 42/60/42 59/78/59 60/79/60 
f 61/80/61 44/62/44 43/61/43 
f 43/61/43 60/79/60 61/80/61 
f 62/81/62 45/63/45 44/62/44 
f 44/62/44 61/80/61 62/81/62 
f 63/82/63 46/64/46 45/63/45 
f 45/63/45 62/81/62 63/82/63 
f 64/83/64 47/65/47 46/64/46 
f 46/64/46 63/82/63 64/83/64 
f 65/84/65 48/66/48 47/65/47 
f 47/65/47 64/83/64 65/84/65 
f 66/85/66 49/67/49 48/66/48 
f 48/66/48 65/84/65 66/85/66 
f 67/86/67 50/68/50 49/67/49 
f 49/67/49 66/85/66 67/86/67 
f 68/87/68 51/69/51 50/68/50 
f 50/68/50 67/86/67 68/87/68 
f 69/88/69 52/70/52 51/69/51 
f 51/69/51 68/87/68 69/88/69 
f 54/89/54 37/71/37 52/70/52 
f 52/70/52 69/88/69 54/89/54 
f 70/90/70 53/72/53 54/73/54 
f 54/73/54 71/91/71 70/90/70 
f 72/92/72 55/74/55 53/72/53 
f 53/72/53 70/90/70 72/92/72 
f 73/93/73 56/75/56 55/74/55 
f 55/74/55 72/92/72 73/93/73 
f 74/94/74 57/76/57 56/75/56 
f 56/75/56 73/93/73 74/94/74 
f 75/95/75 58/77/58 57/76/57 
f 57/76/57 74/94/74 75/95/75 
f 76/96/76 59/78/59 58/77/58 
f 58/77/58 75/95/75 76/96/76 
f 77/97/77 60/79/60 59/78/59 
f 59/78/59 76/96/76 77/97/77 
f 78/98/78 61/80/61 60/79/60 
f 60/79/60 77/97/77 78/98/78 
f 79/99/79 62/81/62 61/80/61 
f 61/80/61 78/98/78 79/99/79 
f 80/100/80 63/82/63 62/81/62 
f 62/81/62 79/99/79 80/100/80 
f 81/101/81 64/83/64 63/82/63 
f 63/82/63 80/100/80 81/101/81 
f 82/102/82 65/84/65 64/83/64 
f 64/83/64 81/101/81 82/102/82 
f 83/103/83 66/85/66 65/84/65 
f 65/84/65 82/102/82 83/103/83 
f 84/104/84 67/86/67 66/85/66 
f 66/85/66 83/103/83 84/104/84 
f 85/105/85 68/87/68 67/86/67 
f 67/86/67 84/104/84 85/105/85 
f 86/106/86 69/88/69 68/87/68 
f 68/87/68 85/105/85 86/106/86 
f 71/107/71 54/89/54 69/88/69 
f 69/88/69 86/106/86 71/107/71 
f 87/108/87 70/90/70 71/91/71 
f 71/91/71 88/109/88 87/108/87 
f 89/110/89 72/92/72 70/90/70 
f 70/90/70 87/108/87 89/110/89 
f 90/111/90 73/93/73 72/92/72 
f 72/92/72 89/110/89 90/111/90 
f 91/112/91 74/94/74 73/93/73 
f 73/93/73 90/111/90 91/112/91 
f 92/113/92 75/95/75 74/94/74 
f 74/94/74 91/112/91 92/113/92 
f 93/114/93 76/96/76 75/95/75 
f 75/95/75 92/113/92 93/114/93 
f 94/115/94 77/97/77 76/96/76 
f 76/96/76 93/114/93 94/115/94 
f 95/116/95 78/98/78 77/97/77 
f 77/97/77 94/115/94 95/116/95 
f 96/117/96 79/99/79 78/98/78 
f 78/98/78 95/116/95 96/117/96 
f 97/118/97 80/100/80 79/99/79 
f 79/99/79 96/117/96 97/118/97 
f 98/119/98 81/101/81 80/100/80 
f 80/100/80 97/118/97 98/119/98 
f 99/120/99 82/102/82 81/101/81 
f 81/101/81 98/119/98 99/120/99 
f 100/121/100 83/103/83 82/102/82 
f 82/102/82 99/120/99 100/121/100 
f 101/122/101 84/104/84 83/103/83 
f 83/103/83 100/121/100 101/122/101 
f 102/123/102 85/105/85 84/104/84 
f 84/104/84 101/122/101 102/123/102 
f 103/124/103 86/106/86 85/105/85 
f 85/105/85 102/123/102 103/124/103 
f 88/125/88 71/107/71 86/106/86 
f 86/106/86 103/124/103 88/125/88 
f 104/126/104 87/108/87 88/109/88 
f 88/109/88 105/127/105 104/126/104 
f 106/128/106 89/110/89 87/108/87 
f 87/108/87 104/126/104 106/128/106 
f 107/129/107 90/111/90 89/110/89 
f 89/110/89 106/128/106 107/129/107 
f 108/130/108 91/112/91 90/111/90 
f 90/111/90 107/129/107 108/130/108 
f 109/131/109 92/113/92 91/112/91 
f 91/112/91 108/130/108 109/131/109 
f 110/132/110 93/114/93 92/113/92 
f 92/113/92 109/131/109 110/132/110 
f 111/133/111 94/115/94 93/114/93 
f 93/114/93 110/132/110 111/133/111 
f 112/134/112 95/116/95 94/115/94 
f 94/115/94 111/133/111 112/134/112 
f 113/135/113 96/117/96 95/116/95 
f 95/116/95 112/134/112 113/135/113 
f 114/136/114 97/118/97 96/117/96 
f 96/117/96 113/135/113 114/136/114 
f 115/137/115 98/119/98 97/118/97 
f 97/118/97 114/136/114 115/137/115 
f 116/138/116 99/120/99 98/119/98 
f 98/119/98 115/137/115 116/138/116 
f 117/139/117 100/121/100 99/120/99 
f 99/120/99 116/138/116 117/139/117 
f 118/140/118 101/122/101 100/121/100 
f 100/121/100 117/139/117 118/140/118 
f 119/141/119 102/123/102 101/122/101 
f 101/122/101 118/140/118 119/141/119 
f 120/142/120 103/124/103 102/123/102 
f 102/123/102 119/141/119 120/142/120 
f 105/143/105 88/125/88 103/124/103 
f 103/124/103 120/142/120 105/143/105 
f 121/144/121 104/126/104 105/127/105 
f 121/145/121 106/128/106 104/126/104 
f 121/146/121 107/129/107 106/128/106 
f 121/147/121 108/130/108 107/129/107 
f 121/148/121 109/131/109 108/130/108 
f 121/149/121 110/132/110 109/131/109 
f 121/150/121 111/133/111 110/132/110 
f 121/151/121 112/134/112 111/133/111 
f 121/152/121 113/135/113 112/134/112 
f 121/153/121 114/136/114 113/135/113 
f 121/154/121 115/137/115 114/136/114 
f 121/155/121 116/138/116 115/137/115 
f 121/156/121 117/139/117 116/138/116 
f 121/157/121 118/140/118 117/139/117 
f 121/158/121 119/141/119 118/140/118 
f 121/159/121 120/142/120 119/141/119 
f 121/160/121 105/143/105 120/142/120 
# 238 faces

