# 3ds Max Wavefront OBJ Exporter v0.97b - (c)2007 guruware
# File Created: 05.05.2016 18:36:20

mtllib floor.mtl

#
# object Plane001
#

v  -196.8504 0.0000 196.8504
v  196.8504 0.0000 196.8504
v  196.8504 0.0000 -196.8504
v  -196.8504 0.0000 -196.8504
# 4 vertices

vn 0.0000 1.0000 -0.0000
# 1 vertex normals

vt -12.8079 -12.8079 0.0000
vt 13.8079 -12.8079 0.0000
vt 13.8079 13.8079 0.0000
vt -12.8079 13.8079 0.0000
# 4 texture coords

g Plane001
usemtl wire_214228153
s 1
f 1/1/1 2/2/1 3/3/1 4/4/1 
# 1 polygons

