# 3ds Max Wavefront OBJ Exporter v0.97b - (c)2007 guruware
# File Created: 18.05.2016 17:28:47

mtllib colisionsC_.mtl

#
# object Object005
#

v  17.4279 19.1067 74.5202
v  12.6893 19.1067 77.5345
v  1.4719 19.1067 54.6107
v  -2.9964 19.1067 93.6483
v  -6.8366 19.1067 96.0911
v  -15.9273 19.1067 77.5136
v  19.0295 19.1067 -3.2315
v  13.1375 19.1067 -15.7525
v  69.9924 19.1066 -34.9069
v  -35.7615 19.1066 -48.8929
v  -41.1515 19.1066 -46.9644
v  -47.0208 19.1066 -71.9023
v  -176.1128 19.1067 -2.3280
v  -171.7610 19.1067 -0.7709
v  -180.8516 19.1067 17.8066
v  -263.6216 19.1067 -29.9691
v  -266.0906 19.1067 -31.5398
v  -257.7767 19.1067 -41.9137
v  -270.7224 19.1067 -80.8111
v  -271.0739 19.1067 -83.8579
v  -257.7767 19.1067 -83.8579
# 21 vertices

vn -0.0000 -1.0000 0.0000
vn 0.0000 -1.0000 0.0000
# 2 vertex normals

vt -48.3943 -110.4325 0.0000
vt -53.1329 -113.4468 0.0000
vt -64.3504 -90.5230 0.0000
vt -70.5255 -131.5316 0.0000
vt -74.3657 -133.9744 0.0000
vt -83.4563 -115.3969 0.0000
vt -58.4087 -13.7468 0.0000
vt -59.9948 -0.0000 0.0000
vt 0.0000 -0.0000 0.0000
vt -103.1764 15.0961 0.0000
vt -108.3384 13.2491 0.0000
vt -113.9593 37.1319 0.0000
vt -243.4464 -32.6448 0.0000
vt -239.0946 -34.2020 0.0000
vt -248.1853 -52.7794 0.0000
vt -5.8449 -11.9445 0.0000
vt -8.3140 -10.3739 0.0000
vt -0.0000 -0.0000 0.0000
vt -12.9457 -3.0469 0.0000
vt -13.2973 -0.0000 0.0000
# 20 texture coords

g Object005
usemtl 01___Default
s off
f 1/1/1 2/2/1 3/3/1 
f 4/4/2 5/5/2 6/6/2 
f 7/7/1 8/8/1 9/9/1 
f 10/10/1 11/11/1 12/12/1 
f 13/13/1 14/14/1 15/15/1 
f 16/16/1 17/17/1 18/18/1 
f 19/19/1 20/20/1 21/18/1 
# 7 faces

