# 3ds Max Wavefront OBJ Exporter v0.97b - (c)2007 guruware
# File Created: 17.05.2016 07:04:12

mtllib colisionsC.mtl

#
# object Object005
#

v  -25.8774 12.1444 60.5874
v  -31.3796 12.1444 65.2043
v  -15.5367 12.1444 78.4980
v  -9.1908 12.1444 31.5232
v  -15.9802 12.1444 37.2202
v  3.5692 12.1444 53.6241
v  11.6728 12.1444 -57.3711
v  7.9296 12.1444 -36.1426
v  67.9196 12.1444 -36.8989
v  -46.0397 12.1444 -74.0308
v  -41.7799 12.1444 -49.8722
v  -33.7741 12.1444 -52.7860
v  -180.2656 12.1444 15.8805
v  -159.5843 12.1444 15.8806
v  -160.8315 12.1444 8.8071
# 15 vertices

vn 0.0000 1.0000 -0.0000
vn -0.0000 1.0000 0.0000
vn -0.0000 1.0000 -0.0000
# 3 vertex normals

vt 0.0670 0.2500 0.2500
vt 0.1786 0.1170 0.2500
vt 0.5000 0.5000 0.2500
vt 0.3290 0.0302 0.2500
vt 0.5000 0.0000 0.2500
vt 0.4992 0.4977 0.2500
vt 0.9924 0.5868 0.2500
vt 0.9330 0.7500 0.2500
vt 0.5000 1.0000 0.2500
vt 0.3290 0.9698 0.2500
# 10 texture coords

g Object005
usemtl lc_comp1a_070709_128x256a
s 1
f 1/1/1 2/2/1 3/3/1 
f 4/1/2 5/2/2 6/3/2 
f 7/4/1 8/5/1 9/6/1 
f 10/3/1 11/7/1 12/8/1 
f 13/3/3 14/9/3 15/10/3 
# 0 polygons - 5 triangles

