# 3ds Max Wavefront OBJ Exporter v0.97b - (c)2007 guruware
# File Created: 18.05.2016 18:11:21

mtllib colisionsC.mtl

#
# object Object005
#

v  26.9918 96.3766 54.6107
v  1.4719 96.3767 54.6107
v  26.3171 96.3766 60.4581
v  -11.1884 96.3767 97.6482
v  -15.9273 96.3767 77.5136
v  -15.9272 96.3767 98.1950
v  19.0295 96.3767 -3.2315
v  69.9924 96.3765 -34.9069
v  13.1375 96.3767 -15.7525
v  -41.1515 96.3769 -96.8402
v  -47.0208 96.3769 -71.9023
v  -35.7615 96.3769 -94.9116
v  -174.0267 96.3772 -2.5917
v  -178.7656 96.3772 17.5429
v  -169.6749 96.3772 -1.0346
v  -266.0906 96.3775 -31.5398
v  -257.7767 96.3775 -41.9137
v  -268.1505 96.3775 -33.5997
v  -268.1505 96.3775 -92.1719
v  -257.7767 96.3775 -83.8579
v  -266.0906 96.3775 -94.2318
# 21 vertices

vn 0.0000 1.0000 0.0000
# 1 vertex normals

vt -38.8305 -90.5230 0.0000
vt -64.3504 -90.5230 0.0000
vt -39.5051 -96.3705 0.0000
vt -78.7175 -135.5315 0.0000
vt -83.4563 -115.3969 0.0000
vt -83.4563 -136.0783 0.0000
vt -58.4087 -13.7468 0.0000
vt 0.0000 -0.0000 0.0000
vt -59.9948 -0.0000 0.0000
vt -108.3384 61.0147 0.0000
vt -113.9593 37.1319 0.0000
vt -103.1764 59.1677 0.0000
vt -243.4464 -32.6448 0.0000
vt -248.1853 -52.7794 0.0000
vt -239.0946 -34.2020 0.0000
vt -8.3140 -10.3739 0.0000
vt -0.0000 -0.0000 0.0000
vt -10.3739 -8.3140 0.0000
vt -10.3739 8.3140 0.0000
vt -8.3140 10.3739 0.0000
# 20 texture coords

g Object005
usemtl 01___Default
s 1
f 1/1/1 2/2/1 3/3/1 
f 4/4/1 5/5/1 6/6/1 
f 7/7/1 8/8/1 9/9/1 
f 10/10/1 11/11/1 12/12/1 
f 13/13/1 14/14/1 15/15/1 
f 16/16/1 17/17/1 18/18/1 
f 19/19/1 20/17/1 21/20/1 
# 7 faces

